<?xml version="1.0" encoding="UTF-8"?>
<svg width="1400" height="560" viewBox="0 0 1400 560" fill="none" xmlns="http://www.w3.org/2000/svg">
  <defs>
    <linearGradient id="bg" x1="0" y1="0" x2="0" y2="1">
      <stop offset="0%" stop-color="#0b1220" />
      <stop offset="100%" stop-color="#0f172a" />
    </linearGradient>
    <filter id="blur" x="-20%" y="-20%" width="140%" height="140%">
      <feGaussianBlur stdDeviation="60" />
    </filter>
  </defs>

  <rect width="100%" height="100%" fill="url(#bg)"/>
  <ellipse cx="700.0" cy="504.0" rx="630.0" ry="224.0" fill="#3B82F612" filter="url(#blur)"/>

  <circle cx="420" cy="300" r="180" fill="none" stroke="#0b1220" stroke-width="46" />

  <circle cx="420" cy="300" r="180" fill="none" stroke="#6366F1" stroke-width="44" stroke-linecap="butt" stroke-dasharray="389.244 1130.973" stroke-dashoffset="0.000" /><circle cx="420" cy="300" r="180" fill="none" stroke="#A855F7" stroke-width="44" stroke-linecap="butt" stroke-dasharray="323.287 1130.973" stroke-dashoffset="-400.554" /><circle cx="420" cy="300" r="180" fill="none" stroke="#38BDF8" stroke-width="44" stroke-linecap="butt" stroke-dasharray="266.560 1130.973" stroke-dashoffset="-735.151" /><circle cx="420" cy="300" r="180" fill="none" stroke="#10B981" stroke-width="44" stroke-linecap="butt" stroke-dasharray="29.089 1130.973" stroke-dashoffset="-1013.020" /><circle cx="420" cy="300" r="180" fill="none" stroke="#14B8A6" stroke-width="44" stroke-linecap="butt" stroke-dasharray="27.318 1130.973" stroke-dashoffset="-1053.419" /><circle cx="420" cy="300" r="180" fill="none" stroke="#F59E0B" stroke-width="44" stroke-linecap="butt" stroke-dasharray="27.617 1130.973" stroke-dashoffset="-1092.047" />

  <circle cx="420" cy="300" r="158.0" fill="url(#bg)"/>

  <text x="420" y="290" text-anchor="middle" font-size="22" font-family="Inter, ui-sans-serif, system-ui, -apple-system" fill="#EBE4D2" opacity="0.95">Most Used</text>
  <text x="420" y="322" text-anchor="middle" font-size="22" font-family="Inter, ui-sans-serif, system-ui, -apple-system" fill="#EBE4D2" opacity="0.95">Languages</text>

  <g transform="translate(760,160)"><rect x="0" y="-2" rx="20" ry="20" width="420" height="40" fill="#ffffff14" /><circle cx="20" cy="18" r="10" fill="#6366F1" /><text x="46" y="24" font-size="20" font-family="Inter, ui-sans-serif, system-ui, -apple-system" fill="#E2E8F0">C</text><text x="400" y="24" text-anchor="end" font-size="20" font-family="Inter, ui-sans-serif, system-ui, -apple-system" fill="#EBE4D2">35%</text></g><g transform="translate(760,212)"><rect x="0" y="-2" rx="20" ry="20" width="420" height="40" fill="#ffffff14" /><circle cx="20" cy="18" r="10" fill="#A855F7" /><text x="46" y="24" font-size="20" font-family="Inter, ui-sans-serif, system-ui, -apple-system" fill="#E2E8F0">C++</text><text x="400" y="24" text-anchor="end" font-size="20" font-family="Inter, ui-sans-serif, system-ui, -apple-system" fill="#EBE4D2">30%</text></g><g transform="translate(760,264)"><rect x="0" y="-2" rx="20" ry="20" width="420" height="40" fill="#ffffff14" /><circle cx="20" cy="18" r="10" fill="#38BDF8" /><text x="46" y="24" font-size="20" font-family="Inter, ui-sans-serif, system-ui, -apple-system" fill="#E2E8F0">Go</text><text x="400" y="24" text-anchor="end" font-size="20" font-family="Inter, ui-sans-serif, system-ui, -apple-system" fill="#EBE4D2">25%</text></g><g transform="translate(760,316)"><rect x="0" y="-2" rx="20" ry="20" width="420" height="40" fill="#ffffff14" /><circle cx="20" cy="18" r="10" fill="#10B981" /><text x="46" y="24" font-size="20" font-family="Inter, ui-sans-serif, system-ui, -apple-system" fill="#E2E8F0">Makefile</text><text x="400" y="24" text-anchor="end" font-size="20" font-family="Inter, ui-sans-serif, system-ui, -apple-system" fill="#EBE4D2">4%</text></g><g transform="translate(760,368)"><rect x="0" y="-2" rx="20" ry="20" width="420" height="40" fill="#ffffff14" /><circle cx="20" cy="18" r="10" fill="#14B8A6" /><text x="46" y="24" font-size="20" font-family="Inter, ui-sans-serif, system-ui, -apple-system" fill="#E2E8F0">HTML</text><text x="400" y="24" text-anchor="end" font-size="20" font-family="Inter, ui-sans-serif, system-ui, -apple-system" fill="#EBE4D2">3%</text></g><g transform="translate(760,420)"><rect x="0" y="-2" rx="20" ry="20" width="420" height="40" fill="#ffffff14" /><circle cx="20" cy="18" r="10" fill="#F59E0B" /><text x="46" y="24" font-size="20" font-family="Inter, ui-sans-serif, system-ui, -apple-system" fill="#E2E8F0">Other</text><text x="400" y="24" text-anchor="end" font-size="20" font-family="Inter, ui-sans-serif, system-ui, -apple-system" fill="#EBE4D2">3%</text></g>
</svg>