<?xml version="1.0" encoding="UTF-8"?>
<svg width="1400" height="560" viewBox="0 0 1400 560" fill="none" xmlns="http://www.w3.org/2000/svg">
  <defs>
    <linearGradient id="bg" x1="0" y1="0" x2="0" y2="1">
      <stop offset="0%" stop-color="#07101D" />
      <stop offset="100%" stop-color="#12243A" />
    </linearGradient>
    <filter id="blur" x="-20%" y="-20%" width="140%" height="140%">
      <feGaussianBlur stdDeviation="60" />
    </filter>
  </defs>

  <rect width="100%" height="100%" fill="url(#bg)"/>
  <ellipse cx="700.0" cy="504.0" rx="630.0" ry="224.0" fill="#68D5FF14" filter="url(#blur)"/>

  <circle cx="420" cy="300" r="180" fill="none" stroke="#07101D" stroke-width="46" />

  <circle cx="420" cy="300" r="180" fill="none" stroke="#68D5FF" stroke-width="44" stroke-linecap="butt" stroke-dasharray="277.522 1130.973" stroke-dashoffset="0.000" /><circle cx="420" cy="300" r="180" fill="none" stroke="#FFB84D" stroke-width="44" stroke-linecap="butt" stroke-dasharray="245.006 1130.973" stroke-dashoffset="-288.832" /><circle cx="420" cy="300" r="180" fill="none" stroke="#7C9BFF" stroke-width="44" stroke-linecap="butt" stroke-dasharray="229.962 1130.973" stroke-dashoffset="-545.148" /><circle cx="420" cy="300" r="180" fill="none" stroke="#3DD9B3" stroke-width="44" stroke-linecap="butt" stroke-dasharray="96.824 1130.973" stroke-dashoffset="-786.419" /><circle cx="420" cy="300" r="180" fill="none" stroke="#FF7A7A" stroke-width="44" stroke-linecap="butt" stroke-dasharray="86.530 1130.973" stroke-dashoffset="-894.552" /><circle cx="420" cy="300" r="180" fill="none" stroke="#B9E769" stroke-width="44" stroke-linecap="butt" stroke-dasharray="127.271 1130.973" stroke-dashoffset="-992.392" />

  <circle cx="420" cy="300" r="158.0" fill="url(#bg)"/>

  <text x="420" y="290" text-anchor="middle" font-size="22" font-family="Avenir Next, Segoe UI, sans-serif" fill="#F6F0E3" opacity="0.95">Repository</text>
  <text x="420" y="322" text-anchor="middle" font-size="22" font-family="Avenir Next, Segoe UI, sans-serif" fill="#F6F0E3" opacity="0.95">Language Mix</text>

  <g transform="translate(760,160)"><rect x="0" y="-2" rx="20" ry="20" width="420" height="40" fill="#ffffff10" /><circle cx="20" cy="18" r="10" fill="#68D5FF" /><text x="46" y="24" font-size="20" font-family="Avenir Next, Segoe UI, sans-serif" fill="#D7E7F7">C</text><text x="400" y="24" text-anchor="end" font-size="20" font-family="Avenir Next, Segoe UI, sans-serif" fill="#F6F0E3">26%</text></g><g transform="translate(760,212)"><rect x="0" y="-2" rx="20" ry="20" width="420" height="40" fill="#ffffff10" /><circle cx="20" cy="18" r="10" fill="#FFB84D" /><text x="46" y="24" font-size="20" font-family="Avenir Next, Segoe UI, sans-serif" fill="#D7E7F7">Go</text><text x="400" y="24" text-anchor="end" font-size="20" font-family="Avenir Next, Segoe UI, sans-serif" fill="#F6F0E3">23%</text></g><g transform="translate(760,264)"><rect x="0" y="-2" rx="20" ry="20" width="420" height="40" fill="#ffffff10" /><circle cx="20" cy="18" r="10" fill="#7C9BFF" /><text x="46" y="24" font-size="20" font-family="Avenir Next, Segoe UI, sans-serif" fill="#D7E7F7">C++</text><text x="400" y="24" text-anchor="end" font-size="20" font-family="Avenir Next, Segoe UI, sans-serif" fill="#F6F0E3">21%</text></g><g transform="translate(760,316)"><rect x="0" y="-2" rx="20" ry="20" width="420" height="40" fill="#ffffff10" /><circle cx="20" cy="18" r="10" fill="#3DD9B3" /><text x="46" y="24" font-size="20" font-family="Avenir Next, Segoe UI, sans-serif" fill="#D7E7F7">CSS</text><text x="400" y="24" text-anchor="end" font-size="20" font-family="Avenir Next, Segoe UI, sans-serif" fill="#F6F0E3">10%</text></g><g transform="translate(760,368)"><rect x="0" y="-2" rx="20" ry="20" width="420" height="40" fill="#ffffff10" /><circle cx="20" cy="18" r="10" fill="#FF7A7A" /><text x="46" y="24" font-size="20" font-family="Avenir Next, Segoe UI, sans-serif" fill="#D7E7F7">HTML</text><text x="400" y="24" text-anchor="end" font-size="20" font-family="Avenir Next, Segoe UI, sans-serif" fill="#F6F0E3">9%</text></g><g transform="translate(760,420)"><rect x="0" y="-2" rx="20" ry="20" width="420" height="40" fill="#ffffff10" /><circle cx="20" cy="18" r="10" fill="#B9E769" /><text x="46" y="24" font-size="20" font-family="Avenir Next, Segoe UI, sans-serif" fill="#D7E7F7">Other</text><text x="400" y="24" text-anchor="end" font-size="20" font-family="Avenir Next, Segoe UI, sans-serif" fill="#F6F0E3">12%</text></g>
</svg>